With: Brittney Bomann, Byron Taylor and Emma Samms

Een jong weesmeisje groeit op bij haar grootvader. Als haar favoriete merrie tijdens een bevalling overlijdt, blijkt de pony geen paard maar een eenhoorn te zijn. Al snel krijgt de pers er lucht van en wordt de boerderij overspoeld met vreemde types als een tovenaar en een circusdirecteur.

In this story of magic and adventure, tomboy, Polly Regan is an orphan and her grandfather has made a home for her on his farm...
 
http://www.imdb.com/title/tt0277800

------------------------ Dutch Friends ------------------------
---------------------------------------------------------------
- Bezoek ook eens mijn vrienden op:  http://www.Film-Test.nl --
----- voor mijn Nederlandse Sync. ondertitels ---- en meer ----
------- http://www.Film-Test.nl ---- Over Films en meer -------
---------------------------------------------------------------

General:

Complete name                    : The Little UnicornThe Little Unicorn.avi
Format                           : AVI
Format/Info                      : Audio Video Interleave
File size                        : 904 MiB
Duration                         : 1h 21mn
Overall bit rate                 : 1 557 Kbps

Video:

Format                           : MPEG-4 Visual
Format profile                   : Simple@L3
Format settings, BVOP            : No
Format settings, QPel            : No
Format settings, GMC             : No warppoints
Format settings, Matrix          : Default (H.263)
Codec ID                         : XVID
Codec ID/Hint                    : XviD
Duration                         : 1h 21mn
Bit rate                         : 1 354 Kbps
Width                            : 640 pixels
Height                           : 480 pixels
Display aspect ratio             : 4:3
Frame rate                       : 25.000 fps
Color space                      : YUV
Chroma subsampling               : 4:2:0
Bit depth                        : 8 bits
Scan type                        : Progressive
Compression mode                 : Lossy
Bits/(Pixel*Frame)               : 0.176
Stream size                      : 786 MiB (87%)
Writing library                  : XviD 1.1.2 (UTC 2006-11-01)

Audio:

Format                           : AC-3
Format/Info                      : Audio Coding 3
Mode extension                   : CM (complete main)
Codec ID                         : 2000
Duration                         : 1h 21mn
Bit rate mode                    : Constant
Bit rate                         : 192 Kbps
Channel(s)                       : 2 channels
Channel positions                : Front: L R
Sampling rate                    : 48.0 KHz
Bit depth                        : 16 bits
Compression mode                 : Lossy
Stream size                      : 111 MiB (12%)
Alignment                        : Aligned on interleaves
Interleave, duration             : 32 ms (0.80 video frame)
Interleave, preload duration     : 160 ms